<svg width="207" height="36" viewBox="0 0 207 36" fill="none" xmlns="http://www.w3.org/2000/svg">
<path d="M8.83594 4.18798V21.6049C8.83594 21.9196 9.00512 22.2134 9.27819 22.3707L14.2884 25.2617V0.53125L9.27819 3.4222C9.00512 3.57951 8.83594 3.87039 8.83594 4.18798Z" fill="#161B21"/>
<path d="M13.8463 28.9217L5.8947 24.333C5.62163 24.1757 5.45245 23.8848 5.45245 23.5672V5.63086L0.558009 8.45948C0.213706 8.66131 0 9.0264 0 9.42116V26.5888C0 26.9776 0.213706 27.3486 0.558009 27.5445L14.2886 35.4694V29.6905C14.2886 29.3759 14.1194 29.082 13.8463 28.9247V28.9217Z" fill="#161B21"/>
<path d="M22.6762 13.6263L17.666 10.7354V35.4658L22.6762 32.5748C22.9493 32.4175 23.1185 32.1266 23.1185 31.809V14.3921C23.1185 14.0775 22.9493 13.7836 22.6762 13.6263Z" fill="#161B21"/>
<path d="M31.3966 8.45614L17.666 0.53125V6.31018C17.666 6.62481 17.8352 6.91865 18.1083 7.07596L26.0599 11.6647C26.3329 11.822 26.5021 12.1129 26.5021 12.4305V30.3668L31.3966 27.5382C31.7409 27.3364 31.9546 26.9713 31.9546 26.5765V9.40891C31.9546 9.02008 31.7409 8.64907 31.3966 8.45317V8.45614Z" fill="#161B21"/>
<path d="M160.172 8.73535H156.862V27.2624H160.172V8.73535Z" fill="#161B21"/>
<path d="M54.1034 8.73535H50.7939V27.2624H54.1034V8.73535Z" fill="#161B21"/>
<path d="M85.4494 19.4711H96.3484V16.497H85.4494V11.7094H100.05V8.73535H82.1162V27.2624H100.412V24.2824H85.4494V19.4711Z" fill="#161B21"/>
<path d="M111.64 8.73535L101.818 26.2235V27.2624H105.057L107.295 23.4246H120.918L123.076 27.2624H126.311V26.2235L116.478 8.73535H111.64ZM109.084 20.0973L113.893 11.5432H114.234L118.93 20.0944H109.081L109.084 20.0973Z" fill="#161B21"/>
<path d="M180.643 23.7481H180.165L169.13 8.81846L169.067 8.73535H163.481V27.2624H166.812V12.2496H167.287L178.355 27.2624H183.941V8.73535H180.643V23.7481Z" fill="#161B21"/>
<path d="M199.316 18.0553L206.199 9.89292V8.73535H202.854L196.205 16.5415H190.566V8.73535H187.235V27.2624H190.566V19.4562H196.042L203.661 27.2624H207V25.9089L199.316 18.0553Z" fill="#161B21"/>
<path d="M140.019 8.73828H136.686V27.2594H153.53V24.3477H140.019V8.73828Z" fill="#161B21"/>
<path d="M73.9686 8.73535H57.4658V27.2624H73.9686L78.8096 23.1872V12.8136L73.9686 8.73832V8.73535ZM75.4794 21.6882L72.8288 23.9381H60.7961V12.0448H72.7932L75.4794 14.3095V21.6882Z" fill="#161B21"/>
</svg>
